<?xml version="1.0" encoding="UTF-8" standalone="no"?>
<!-- Generator: Adobe Illustrator 21.0.2, SVG Export Plug-In . SVG Version: 6.00 Build 0)  -->

<svg
   xmlns:dc="http://purl.org/dc/elements/1.1/"
   xmlns:cc="http://creativecommons.org/ns#"
   xmlns:rdf="http://www.w3.org/1999/02/22-rdf-syntax-ns#"
   xmlns:svg="http://www.w3.org/2000/svg"
   xmlns="http://www.w3.org/2000/svg"
   xmlns:sodipodi="http://sodipodi.sourceforge.net/DTD/sodipodi-0.dtd"
   xmlns:inkscape="http://www.inkscape.org/namespaces/inkscape"
   version="1.1"
   x="0px"
   y="0px"
   viewBox="0 0 612 792"
   xml:space="preserve"
   inkscape:version="0.91 r13725"
   sodipodi:docname="Ahern Logo_rev_V1000.svg"
   width="600"
   height="400"><metadata
     id="metadata37"><rdf:RDF><cc:Work
         rdf:about=""><dc:format>image/svg+xml</dc:format><dc:type
           rdf:resource="http://purl.org/dc/dcmitype/StillImage" /><dc:title></dc:title></cc:Work></rdf:RDF></metadata><defs
     id="defs35" /><sodipodi:namedview
     pagecolor="#ffffff"
     bordercolor="#666666"
     borderopacity="1"
     objecttolerance="10"
     gridtolerance="10"
     guidetolerance="10"
     inkscape:pageopacity="0"
     inkscape:pageshadow="2"
     inkscape:window-width="1920"
     inkscape:window-height="1018"
     id="namedview33"
     showgrid="false"
     inkscape:zoom="0.2979798"
     inkscape:cx="-390.35593"
     inkscape:cy="396"
     inkscape:window-x="-8"
     inkscape:window-y="-8"
     inkscape:window-maximized="1" /><style
     type="text/css"
     id="style3">
	.st0{stroke:#FFFFFF;}
	.st1{fill:#FFFFFF;}
	.st2{fill:#C41230;}
	.st3{font-family:'CenturyGothic';}
	.st4{font-size:16px;}
</style><g
     id="g5"
     transform="matrix(4.2002104,0,0,5.2656463,-915.86578,-278.12014)"><rect
       x="181.7"
       y="92.300003"
       class="st0"
       width="13"
       height="70.5"
       id="rect7"
       style="stroke:#ffffff" /><rect
       x="182.8"
       y="116.7"
       class="st1"
       width="10.8"
       height="22.6"
       id="rect9"
       style="fill:#ffffff" /><rect
       x="182.8"
       y="93.199997"
       class="st2"
       width="10.8"
       height="22.6"
       id="rect11"
       style="fill:#c41230" /><path
       class="st1"
       d="m 271.5,144.9 -2.2,8 4.9,0 2.2,-8.1 4.5,0 -5.2,18.7 -4.6,-0.1 2.3,-8.2 -4.8,0 -2.3,8.2 -4.7,0 5.1,-18.5 4.8,0 z"
       id="path13"
       inkscape:connector-curvature="0"
       style="fill:#ffffff" /><path
       class="st1"
       d="m 295.2,147.2 c -3.8,0.1 -4.4,-0.3 -5.5,0.4 -0.9,0.6 -1.5,3.6 -2,5.4 l 5.2,0 -0.8,2.5 -5.1,0 c -1,3.9 -1.5,4.6 -1.1,5.3 0.7,0.9 2.4,0.7 5.6,0.5 l -0.5,2.2 c -3.8,0 -9.8,0.5 -10.3,-0.5 -0.3,-0.6 -0.5,-0.8 -0.4,-1.8 l 3.7,-13.6 c 0,0 0.8,-1.7 1.8,-2.2 1.5,-0.9 3.1,-0.4 10,-0.5 l -0.6,2.3 z"
       id="path15"
       inkscape:connector-curvature="0"
       style="fill:#ffffff" /><path
       class="st1"
       d="m 308.3,144.7 c 2.9,0 6.6,0.9 5.5,5.5 -1,4 -5.2,5 -5.2,5 l 3.3,8.3 -6.3,0 -1.6,-9.5 c 1.4,0.4 4.5,-2.1 4.7,-4.3 0.2,-2.6 -1.5,-2.9 -3.4,-2.9 l -4.5,16.7 -5.3,0 5.1,-18.8 7.7,0 z"
       id="path17"
       inkscape:connector-curvature="0"
       style="fill:#ffffff" /><path
       class="st1"
       d="m 315,163.8 4.3,-15.7 c 0.4,-1.3 1.9,-3.2 3.3,-3.2 3.6,0 3.5,4.9 5.6,9.7 l 2.6,-9.5 2.6,0 -4.3,15.9 c -0.4,1.3 -0.9,3 -2.3,3 -2.8,0 -3,-3.4 -6,-12.6 l -3.4,12.3 -2.4,0.1 z"
       id="path19"
       inkscape:connector-curvature="0"
       style="fill:#ffffff" /><path
       class="st1"
       d="m 378.5,164.6 c 0,0 26.6,-4.7 5,-24.9 C 361.4,119 320.2,103.4 295.4,95 280.8,90 262.7,83.2 231.6,79.2 c -31,-4 -33.6,-3.1 -33.6,-3.1 0,0 13.6,-1.1 36.5,2.5 14.9,2.3 38,6 69,16.7 32,11.1 48,18.4 65,28 7.5,4.2 58.7,35.4 10,41.3 z"
       id="path21"
       inkscape:connector-curvature="0"
       style="fill:#ffffff" /><path
       class="st2"
       d="m 377.5,164.7 c 51.9,-4.2 0.9,-37.3 -12.7,-44.7 -15.5,-8.5 -36.7,-19.8 -81.1,-31.9 -55.8,-15.3 -88.5,-12 -88.5,-12 l 0,0 c 0,0 41.7,-1.1 88.5,13 15.7,4.7 28,9.1 38.8,13.1 18.7,7.1 31.6,13.3 42.4,19.2 13.6,7.4 62.4,39.1 10.5,43.3 l 2.1,0 z"
       id="path23"
       inkscape:connector-curvature="0"
       style="fill:#c41230" /><path
       class="st1"
       d="m 243.1,162.9 -3.3,-28.9 -21.5,0 -10.9,28.9 -8.7,0 38.6,-97.7 7.2,0 14.8,97.7 -16.2,0 z m -9.1,-70.7 -12.7,33.2 17.4,0 -4.7,-33.2 z"
       id="path25"
       inkscape:connector-curvature="0"
       style="fill:#ffffff" /></g><g
     id="g27"
     transform="matrix(4.2002104,0,0,5.2656463,-915.86578,-278.12014)"><path
       class="st1"
       d="m 395.3,130.1 c 0.5,0 0.9,0.1 1.4,0.3 0.4,0.2 0.8,0.4 1.1,0.8 0.3,0.3 0.6,0.7 0.8,1.1 0.2,0.4 0.3,0.9 0.3,1.4 0,0.6 -0.2,1.2 -0.5,1.8 -0.3,0.5 -0.7,1 -1.3,1.3 -0.5,0.3 -1.1,0.5 -1.8,0.5 -0.6,0 -1.2,-0.2 -1.8,-0.5 -0.5,-0.3 -1,-0.7 -1.3,-1.3 -0.3,-0.5 -0.5,-1.1 -0.5,-1.8 0,-0.6 0.2,-1.2 0.5,-1.8 0.3,-0.5 0.7,-1 1.3,-1.3 0.6,-0.4 1.2,-0.5 1.8,-0.5 z m 0,0.7 c -0.5,0 -1,0.1 -1.4,0.4 -0.4,0.3 -0.8,0.6 -1,1 -0.3,0.4 -0.4,0.9 -0.4,1.4 0,0.5 0.1,1 0.4,1.4 0.3,0.4 0.6,0.8 1,1 0.4,0.3 0.9,0.4 1.4,0.4 0.5,0 1,-0.1 1.4,-0.4 0.4,-0.3 0.8,-0.6 1,-1 0.3,-0.4 0.4,-0.9 0.4,-1.4 0,-0.5 -0.1,-1 -0.4,-1.4 -0.3,-0.4 -0.6,-0.8 -1,-1 -0.4,-0.3 -0.9,-0.4 -1.4,-0.4 z m -0.8,4.7 -0.8,0 0,-3.7 1.8,0 c 0.3,0 0.5,0 0.7,0.1 0.2,0.1 0.3,0.2 0.4,0.4 0.1,0.2 0.1,0.3 0.1,0.6 0,0.3 -0.1,0.5 -0.3,0.7 -0.2,0.2 -0.4,0.3 -0.7,0.4 0.2,0.1 0.3,0.2 0.4,0.3 0.1,0.1 0.2,0.3 0.4,0.6 l 0.4,0.8 -0.9,0 -0.3,-0.6 c -0.1,-0.3 -0.3,-0.5 -0.4,-0.6 -0.1,-0.1 -0.2,-0.2 -0.3,-0.3 -0.1,0 -0.2,-0.1 -0.4,-0.1 l -0.2,0 0,1.4 z m 0,-3.2 0,1 0.6,0 c 0.3,0 0.5,0 0.6,-0.1 0.1,-0.1 0.2,-0.2 0.2,-0.4 0,-0.1 -0.1,-0.3 -0.2,-0.3 -0.1,-0.1 -0.3,-0.1 -0.6,-0.1 l -0.6,0 z"
       id="path29"
       inkscape:connector-curvature="0"
       style="fill:#ffffff" /></g><text
     transform="scale(0.89311973,1.1196707)"
     class="st1 st3 st4"
     id="text31"
     style="font-size:75.24564362px;font-family:CenturyGothic;fill:#ffffff"
     x="-262.40628"
     y="635.96936">Building Comfort for Generations.</text>
</svg>